<svg width="47" height="36" viewBox="0 0 47 36" fill="none" xmlns="http://www.w3.org/2000/svg">
<path d="M6.24381 28.3657C8.00381 28.0863 9.07936 27.807 9.47048 27.5276C9.86159 27.2203 10.0571 26.6337 10.0571 25.7676V3.13905C6.45333 3.19492 4.52571 3.27873 4.27429 3.39048C4.02286 3.50222 3.8273 3.62794 3.68762 3.76762C3.35238 4.21461 2.9473 5.79302 2.47238 8.50286L0.335238 8.33524C0.307302 7.91619 0.293333 7.10603 0.293333 5.90476C0.293333 4.67556 0.419048 3.02731 0.670476 0.960004H23.5086C23.76 3.02731 23.8857 4.67556 23.8857 5.90476C23.8857 7.10603 23.8717 7.91619 23.8438 8.33524L21.7067 8.50286C21.2317 5.79302 20.8127 4.21461 20.4495 3.76762C20.3378 3.62794 20.1562 3.50222 19.9048 3.39048C19.6533 3.27873 17.7257 3.19492 14.1219 3.13905V26.7733C14.1219 27.4159 14.4013 27.779 14.96 27.8629L18.1867 28.3657L18.019 30H6.49524L6.24381 28.3657ZM25.4843 28.1143L24.5205 25.5581L37.8043 7.62286C39.3688 7.25968 40.57 7.0781 41.4081 7.0781L41.8691 7.49715V25.6838L46.1434 25.7676L45.7662 28.1562H41.8691V35.1124C40.9751 35.28 39.8716 35.3638 38.5586 35.3638L38.0976 34.9448V28.1562H25.5262L25.4843 28.1143ZM27.4957 25.181L27.6634 25.4743L38.0976 25.6419V12.5257C38.0976 11.939 38.1256 11.52 38.1815 11.2686L37.93 11.1429L28.25 24.259C28.0265 24.5943 27.7751 24.9016 27.4957 25.181Z" fill="black"/>
</svg>
