<svg width="163" height="36" viewBox="0 0 163 36" fill="none" xmlns="http://www.w3.org/2000/svg">
<path d="M6.24381 28.3657C8.00381 28.0863 9.07936 27.807 9.47048 27.5276C9.86159 27.2203 10.0571 26.6337 10.0571 25.7676V3.13905C6.45333 3.19492 4.52571 3.27873 4.27429 3.39048C4.02286 3.50222 3.8273 3.62794 3.68762 3.76762C3.35238 4.21461 2.9473 5.79302 2.47238 8.50286L0.335238 8.33524C0.307302 7.91619 0.293333 7.10603 0.293333 5.90476C0.293333 4.67556 0.419048 3.02731 0.670476 0.960004H23.5086C23.76 3.02731 23.8857 4.67556 23.8857 5.90476C23.8857 7.10603 23.8717 7.91619 23.8438 8.33524L21.7067 8.50286C21.2317 5.79302 20.8127 4.21461 20.4495 3.76762C20.3378 3.62794 20.1562 3.50222 19.9048 3.39048C19.6533 3.27873 17.7257 3.19492 14.1219 3.13905V26.7733C14.1219 27.4159 14.4013 27.779 14.96 27.8629L18.1867 28.3657L18.019 30H6.49524L6.24381 28.3657ZM25.4843 28.1143L24.5205 25.5581L37.8043 7.62286C39.3688 7.25968 40.57 7.0781 41.4081 7.0781L41.8691 7.49715V25.6838L46.1434 25.7676L45.7662 28.1562H41.8691V35.1124C40.9751 35.28 39.8716 35.3638 38.5586 35.3638L38.0976 34.9448V28.1562H25.5262L25.4843 28.1143ZM27.4957 25.181L27.6634 25.4743L38.0976 25.6419V12.5257C38.0976 11.939 38.1256 11.52 38.1815 11.2686L37.93 11.1429L28.25 24.259C28.0265 24.5943 27.7751 24.9016 27.4957 25.181ZM58.9367 30L58.6853 28.3657C60.166 28.1143 61.0599 27.8349 61.3672 27.5276C61.7025 27.2203 61.8701 26.6337 61.8701 25.7676V5.19238C61.8701 4.32635 61.7025 3.73969 61.3672 3.43239C61.0599 3.12508 60.166 2.84572 58.6853 2.59429L58.9367 0.960004H62.1634H64.6358H66.9406L81.272 22.08H81.5653V6.03048C81.5653 4.77334 81.3279 3.93524 80.8529 3.51619C80.4059 3.09715 79.3025 2.78984 77.5425 2.59429L77.7939 0.960004H87.6415L87.8091 2.59429L85.211 3.09715C84.6523 3.20889 84.3729 3.57207 84.3729 4.18667V30H81.9006H81.7748L65.0129 5.19238H64.6777V25.8095C64.6777 26.5079 64.8034 27.0248 65.0548 27.36C65.3342 27.6952 65.8231 27.9048 66.5215 27.9886L69.4548 28.3657L69.2872 30H58.9367ZM100.062 30.3771C97.0445 30.3771 94.7258 29.4832 93.1055 27.6952C91.4852 25.9073 90.675 23.407 90.675 20.1943C90.675 16.9816 91.5271 14.4114 93.2312 12.4838C94.9633 10.5283 97.3379 9.55048 100.355 9.55048C103.4 9.55048 105.733 10.4584 107.353 12.2743C108.973 14.0622 109.784 16.5625 109.784 19.7752C109.784 22.9879 108.918 25.5581 107.185 27.4857C105.481 29.4133 103.107 30.3771 100.062 30.3771ZM94.7398 19.6495C94.7398 22.1359 95.2426 24.1752 96.2483 25.7676C97.2541 27.36 98.6229 28.1562 100.355 28.1562C102.087 28.1562 103.316 27.7371 104.043 26.899C104.545 26.3403 104.951 25.4603 105.258 24.259C105.565 23.0298 105.719 21.7029 105.719 20.2781C105.719 17.7917 105.216 15.7524 104.21 14.16C103.205 12.5676 101.836 11.7714 100.104 11.7714C98.3715 11.7714 97.1423 12.1905 96.416 13.0286C95.9131 13.5873 95.508 14.4813 95.2007 15.7105C94.8934 16.9117 94.7398 18.2248 94.7398 19.6495ZM114.667 24.259V12.7352H111.943L111.775 10.9333L113.829 10.4305C114.359 10.2908 114.709 9.98349 114.876 9.50857C115.072 9.00572 115.407 7.44127 115.882 4.81524L118.438 4.56381V10.1791H124.263L123.928 12.1486L118.438 12.7771V23.0019C118.438 25.9073 119.332 27.36 121.12 27.36C122.126 27.36 123.187 26.941 124.305 26.1029L125.185 27.3181C123.676 29.3575 121.833 30.3771 119.653 30.3771C118.089 30.3771 116.86 29.8324 115.966 28.7429C115.1 27.6533 114.667 26.1587 114.667 24.259ZM136.064 30.3771C133.242 30.3771 131.049 29.4133 129.485 27.4857C127.948 25.5581 127.18 23.1276 127.18 20.1943C127.18 17.233 128.074 14.7187 129.862 12.6514C131.65 10.5841 134.01 9.55048 136.944 9.55048C141.693 9.55048 144.179 12.4698 144.403 18.3086L143.313 19.1048L131.161 19.7752C131.161 24.9435 133.368 27.5276 137.782 27.5276C139.709 27.5276 141.595 27.0527 143.439 26.1029L144.319 27.4857C143.397 28.24 142.196 28.9105 140.715 29.4971C139.235 30.0838 137.684 30.3771 136.064 30.3771ZM131.287 17.8476L139.961 17.0933C140.24 17.0654 140.38 16.8 140.38 16.2971C140.38 15.0679 140.045 14.0064 139.374 13.1124C138.732 12.2184 137.628 11.7714 136.064 11.7714C134.499 11.7714 133.354 12.3022 132.628 13.3638C131.929 14.3975 131.482 15.8921 131.287 17.8476ZM155.153 11.7714C152.695 11.7714 151.465 12.6095 151.465 14.2857C151.465 14.9562 151.633 15.459 151.968 15.7943C152.303 16.1016 152.541 16.339 152.681 16.5067C152.848 16.6464 153.156 16.8279 153.603 17.0514C154.05 17.2749 154.357 17.4425 154.524 17.5543C154.72 17.6381 155.097 17.7917 155.656 18.0152C158.003 18.993 159.651 19.9149 160.601 20.781C161.55 21.647 162.025 22.8762 162.025 24.4686C162.025 26.061 161.313 27.4438 159.888 28.6171C158.491 29.7905 156.564 30.3771 154.105 30.3771C153.016 30.3771 151.884 30.2654 150.711 30.0419C149.538 29.8184 148.686 29.5949 148.155 29.3714C148.099 29.0083 148.071 28.2679 148.071 27.1505C148.071 26.033 148.197 24.8178 148.448 23.5048L150.627 23.3371C150.823 25.1251 150.963 26.2286 151.046 26.6476C151.158 27.0387 151.312 27.2902 151.507 27.4019C152.401 27.9048 153.575 28.1562 155.027 28.1562C157.29 28.1562 158.422 27.2483 158.422 25.4324C158.422 24.5664 158.086 23.854 157.416 23.2952C156.662 22.6806 155.796 22.1638 154.818 21.7448C152.248 20.6832 150.488 19.7194 149.538 18.8533C148.616 17.9594 148.155 16.7302 148.155 15.1657C148.155 13.6013 148.867 12.2743 150.292 11.1848C151.717 10.0952 153.435 9.55048 155.446 9.55048C157.458 9.55048 159.302 9.89968 160.978 10.5981C161.006 10.8216 161.02 11.4502 161.02 12.4838C161.02 13.5175 160.838 14.607 160.475 15.7524L158.547 15.9619C158.352 13.7829 158.03 12.5397 157.583 12.2324C157.164 11.9251 156.354 11.7714 155.153 11.7714Z" fill="black"/>
</svg>
